# xmcd CD database file
#
# Track frame offsets:
#	225
#	17238
#	31528
#	54373
#	72821
#	93269
#	112332
#	125395
#	153172
#	174267
#	195859
#	211440
#
# Disc length: 2988 seconds
#
# Revision: 2
# Processed by: cddbd v1.5.2PL0 Copyright (c) Steve Scherf et al.
# Submitted via: Feurio! 1.68 - http://www.feurio.com
#
DISCID=910ba90c
DTITLE=nouvelle cuisine - autodictado
DYEAR=2007
DGENRE=pop
TTITLE0=galileo
TTITLE1=aritmética polar
TTITLE2=mapa
TTITLE3=clase A
TTITLE4=dos torres
TTITLE5=la fuga
TTITLE6=punto y seguido
TTITLE7=cine
TTITLE8=el regalo
TTITLE9=llamadme François
TTITLE10=punto final
TTITLE11=pandeirada
EXTD=
EXTT0=
EXTT1=
EXTT2=
EXTT3=
EXTT4=
EXTT5=
EXTT6=
EXTT7=
EXTT8=
EXTT9=
EXTT10=
EXTT11=
PLAYORDER=
